<?xml version="1.0" encoding="utf-8"?>
<!-- Generator: Adobe Illustrator 23.0.0, SVG Export Plug-In . SVG Version: 6.00 Build 0)  -->
<svg version="1.1" id="Capa_1" xmlns="http://www.w3.org/2000/svg" xmlns:xlink="http://www.w3.org/1999/xlink" x="0px" y="0px"
	 viewBox="0 0 193.62 59.31" style="enable-background:new 0 0 193.62 59.31;" xml:space="preserve">
<style type="text/css">
	.st0{fill:#B50D30;}
	.st1{fill:#1F1B1C;}
	.st2{fill:#FFFFFF;}
	.st3{fill:#222221;}
</style>
<rect x="12.82" y="13.1" class="st0" width="37.39" height="37.01"/>
<rect x="50.21" y="13.1" class="st1" width="37.39" height="37.01"/>
<rect x="87.6" y="13.1" class="st0" width="37.39" height="37.01"/>
<g>
	<polygon class="st2" points="35.32,35.95 34.27,37.01 28.76,37.01 27.52,35.77 27.52,21.28 21.07,21.28 21.07,38.26 25.14,42.01 
		38.36,42.01 41.77,38.26 41.77,21.28 35.32,21.28 	"/>
	<polygon class="st2" points="58.5,26.35 65.74,26.35 65.74,41.97 72.19,41.97 72.19,26.35 79.43,26.35 79.43,21.34 58.5,21.34 	"/>
	<path class="st2" d="M112.89,21.33L112.89,21.33l-10.74,0.01v-0.06H95.7v20.69h6.45v-5.56h10.73l0.03,0.03l3.61-3.32V24.5
		L112.89,21.33z M102.15,26.35h6.67l1.24,1.24v2.61l-1.21,1.21h-6.7V26.35z"/>
</g>
<g>
	<path class="st3" d="M139.28,23.55c0,1.7-1.03,2.43-2.66,2.43c-0.59,0-1.48-0.14-2.05-0.78c-0.35-0.4-0.49-0.92-0.5-1.57v-4.29
		h1.38v4.2c0,0.9,0.52,1.3,1.15,1.3c0.93,0,1.31-0.45,1.31-1.23v-4.26h1.38V23.55z"/>
	<path class="st3" d="M144.83,25.81h-1.26V22.9c0-0.35-0.02-0.95-0.82-0.95c-0.56,0-0.99,0.38-0.99,1.11v2.75h-1.26v-4.79h1.21v0.7
		h0.02c0.17-0.29,0.53-0.83,1.44-0.83c0.94,0,1.67,0.55,1.67,1.6V25.81z"/>
	<path class="st3" d="M147.29,20.45h-1.26v-1.17h1.26V20.45z M147.29,21.02v4.79h-1.26v-4.79H147.29z"/>
	<path class="st3" d="M151.08,25.81h-1.32l-1.72-4.79h1.4l0.99,3.53h0.02l1.02-3.53h1.34L151.08,25.81z"/>
	<path class="st3" d="M157.44,24.4c-0.33,1.15-1.29,1.53-2.11,1.53c-1.35,0-2.39-0.65-2.39-2.62c0-0.58,0.2-2.42,2.3-2.42
		c0.95,0,2.25,0.45,2.25,2.64v0.22h-3.29c0.04,0.36,0.11,1.17,1.13,1.17c0.35,0,0.71-0.18,0.81-0.52H157.44z M156.2,22.93
		c-0.07-0.77-0.57-1.01-0.97-1.01c-0.59,0-0.91,0.38-0.98,1.01H156.2z"/>
	<path class="st3" d="M158.32,21.02h1.21v0.83h0.02c0.26-0.49,0.55-0.95,1.31-0.95c0.08,0,0.16,0.01,0.24,0.02v1.28
		c-0.11-0.02-0.24-0.02-0.36-0.02c-0.98,0-1.16,0.61-1.16,1.14v2.49h-1.26V21.02z"/>
	<path class="st3" d="M164.4,22.48c-0.05-0.31-0.16-0.63-0.85-0.63s-0.77,0.26-0.77,0.47c0,0.76,3,0.21,3,1.97
		c0,1.4-1.35,1.65-2.1,1.65c-1.09,0-2.27-0.38-2.3-1.66h1.3c0,0.41,0.25,0.7,1.04,0.7c0.65,0,0.8-0.32,0.8-0.5
		c0-0.8-2.97-0.2-2.97-1.99c0-0.7,0.44-1.6,1.94-1.6c0.94,0,2.05,0.23,2.15,1.58H164.4z"/>
	<path class="st3" d="M168,20.45h-1.26v-1.17H168V20.45z M168,21.02v4.79h-1.26v-4.79H168z"/>
	<path class="st3" d="M173.58,25.81h-1.23v-0.6h-0.02c-0.31,0.54-0.86,0.73-1.39,0.73c-1.42,0-2.02-1.26-2.02-2.58
		c0-1.66,0.94-2.47,1.99-2.47c0.81,0,1.19,0.44,1.39,0.75h0.02v-2.3h1.26V25.81z M171.25,24.9c0.8,0,1.12-0.67,1.12-1.38
		c0-0.76-0.22-1.54-1.08-1.54c-0.8,0-1.07,0.71-1.07,1.47C170.22,24.01,170.44,24.9,171.25,24.9z"/>
	<path class="st3" d="M178.58,24.87c0,0.57,0.13,0.69,0.28,0.75v0.19h-1.36c-0.07-0.22-0.09-0.3-0.12-0.57
		c-0.29,0.3-0.69,0.69-1.55,0.69c-0.72,0-1.46-0.41-1.46-1.4c0-0.94,0.59-1.41,1.4-1.53l1.13-0.17c0.2-0.03,0.44-0.11,0.44-0.38
		c0-0.53-0.5-0.56-0.83-0.56c-0.63,0-0.74,0.39-0.77,0.67h-1.22c0.14-1.47,1.16-1.67,2.14-1.67c0.68,0,1.91,0.21,1.91,1.39V24.87z
		 M177.35,23.47c-0.13,0.1-0.33,0.18-0.85,0.26c-0.47,0.08-0.86,0.2-0.86,0.72c0,0.44,0.34,0.58,0.58,0.58
		c0.56,0,1.13-0.36,1.13-0.95V23.47z"/>
	<path class="st3" d="M184.08,25.81h-1.23v-0.6h-0.02c-0.31,0.54-0.86,0.73-1.39,0.73c-1.42,0-2.02-1.26-2.02-2.58
		c0-1.66,0.94-2.47,1.99-2.47c0.81,0,1.19,0.44,1.39,0.75h0.02v-2.3h1.26V25.81z M181.76,24.9c0.8,0,1.12-0.67,1.12-1.38
		c0-0.76-0.22-1.54-1.08-1.54c-0.8,0-1.07,0.71-1.07,1.47C180.72,24.01,180.95,24.9,181.76,24.9z"/>
	<path class="st3" d="M136.85,34.81h-1.35v-5.32h-1.95v-1.14h5.26v1.14h-1.95V34.81z"/>
	<path class="st3" d="M143.08,33.4c-0.33,1.15-1.29,1.53-2.11,1.53c-1.35,0-2.39-0.65-2.39-2.62c0-0.58,0.2-2.42,2.3-2.42
		c0.95,0,2.25,0.45,2.25,2.64v0.22h-3.29c0.04,0.36,0.11,1.17,1.13,1.17c0.35,0,0.71-0.18,0.81-0.52H143.08z M141.83,31.93
		c-0.07-0.77-0.57-1.01-0.97-1.01c-0.59,0-0.91,0.38-0.98,1.01H141.83z"/>
	<path class="st3" d="M148.09,33.06c-0.04,0.5-0.43,1.87-2.19,1.87c-1.8,0-2.21-1.38-2.21-2.39c0-1.55,0.68-2.66,2.3-2.66
		c0.76,0,2,0.34,2.12,1.84h-1.28c-0.05-0.31-0.23-0.77-0.77-0.77h-0.06c-0.79,0-1,0.79-1,1.39c0,0.52,0.02,1.56,0.97,1.56
		c0.64,0,0.86-0.61,0.86-0.84H148.09z"/>
	<path class="st3" d="M153.3,34.81h-1.26V31.9c0-0.35-0.02-0.95-0.82-0.95c-0.56,0-0.99,0.38-0.99,1.11v2.75h-1.26v-4.79h1.21v0.7
		h0.02c0.17-0.29,0.53-0.83,1.44-0.83c0.94,0,1.67,0.55,1.67,1.6V34.81z"/>
	<path class="st3" d="M156.64,34.93c-1.29,0-2.45-0.79-2.45-2.52s1.16-2.52,2.45-2.52c1.29,0,2.45,0.79,2.45,2.52
		S157.92,34.93,156.64,34.93z M156.64,30.95c-0.97,0-1.15,0.85-1.15,1.46s0.18,1.46,1.15,1.46s1.15-0.85,1.15-1.46
		S157.61,30.95,156.64,30.95z"/>
	<path class="st3" d="M161.26,34.81H160v-6.46h1.26V34.81z"/>
	<path class="st3" d="M164.64,34.93c-1.29,0-2.45-0.79-2.45-2.52s1.16-2.52,2.45-2.52c1.29,0,2.45,0.79,2.45,2.52
		S165.93,34.93,164.64,34.93z M164.64,30.95c-0.97,0-1.15,0.85-1.15,1.46s0.18,1.46,1.15,1.46s1.15-0.85,1.15-1.46
		S165.61,30.95,164.64,30.95z M165.02,29.37h-0.91l0.85-1.31h1.39L165.02,29.37z"/>
	<path class="st3" d="M172.36,30.02v4.54c0,0.83-0.06,2.21-2.42,2.21c-0.99,0-2.03-0.42-2.09-1.44h1.37
		c0.05,0.24,0.15,0.49,0.88,0.49c0.68,0,1-0.32,1-1.1v-0.58l-0.02-0.02c-0.21,0.37-0.52,0.72-1.28,0.72c-1.15,0-2.06-0.8-2.06-2.48
		c0-1.66,0.94-2.47,1.99-2.47c0.89,0,1.25,0.52,1.4,0.84h0.02v-0.71H172.36z M170.04,33.77c0.86,0,1.07-0.73,1.07-1.39
		c0-0.77-0.38-1.4-1.08-1.4c-0.47,0-0.99,0.34-0.99,1.46C169.04,33.05,169.29,33.77,170.04,33.77z"/>
	<path class="st3" d="M174.76,29.45h-1.26v-1.17h1.26V29.45z M174.76,30.02v4.79h-1.26v-4.79H174.76z"/>
	<path class="st3" d="M180.09,33.06c-0.04,0.5-0.43,1.87-2.19,1.87c-1.8,0-2.21-1.38-2.21-2.39c0-1.55,0.68-2.66,2.3-2.66
		c0.76,0,2,0.34,2.12,1.84h-1.28c-0.05-0.31-0.23-0.77-0.77-0.77h-0.06c-0.79,0-1,0.79-1,1.39c0,0.52,0.02,1.56,0.97,1.56
		c0.64,0,0.86-0.61,0.86-0.84H180.09z"/>
	<path class="st3" d="M184.85,33.87c0,0.57,0.13,0.69,0.28,0.75v0.19h-1.36c-0.07-0.22-0.09-0.3-0.12-0.57
		c-0.29,0.3-0.69,0.69-1.55,0.69c-0.72,0-1.46-0.41-1.46-1.4c0-0.94,0.59-1.41,1.4-1.53l1.13-0.17c0.2-0.03,0.44-0.11,0.44-0.38
		c0-0.53-0.5-0.56-0.83-0.56c-0.63,0-0.74,0.39-0.77,0.67h-1.22c0.14-1.47,1.16-1.67,2.14-1.67c0.68,0,1.91,0.21,1.91,1.39V33.87z
		 M183.62,32.47c-0.13,0.1-0.33,0.18-0.86,0.26c-0.47,0.08-0.85,0.2-0.85,0.72c0,0.44,0.34,0.58,0.58,0.58
		c0.56,0,1.13-0.36,1.13-0.95V32.47z"/>
	<path class="st3" d="M138.38,43.81h-1.23v-0.6h-0.02c-0.31,0.54-0.86,0.73-1.39,0.73c-1.42,0-2.02-1.26-2.02-2.58
		c0-1.66,0.94-2.47,1.99-2.47c0.81,0,1.19,0.44,1.39,0.75h0.02v-2.3h1.26V43.81z M136.05,42.9c0.8,0,1.12-0.67,1.12-1.38
		c0-0.76-0.22-1.54-1.08-1.54c-0.8,0-1.07,0.71-1.07,1.47C135.02,42.01,135.24,42.9,136.05,42.9z"/>
	<path class="st3" d="M143.62,42.4c-0.33,1.15-1.29,1.53-2.11,1.53c-1.35,0-2.39-0.65-2.39-2.62c0-0.58,0.2-2.42,2.3-2.42
		c0.95,0,2.25,0.45,2.25,2.64v0.22h-3.29c0.04,0.36,0.11,1.17,1.13,1.17c0.35,0,0.71-0.18,0.81-0.52H143.62z M142.37,40.93
		c-0.07-0.77-0.57-1.01-0.97-1.01c-0.59,0-0.91,0.38-0.98,1.01H142.37z"/>
	<path class="st3" d="M145.8,43.81h-1.26v-6.46h1.26V43.81z"/>
	<path class="st3" d="M150.96,43.81h-1.35v-6.46h2.95c1.25,0,2.01,0.8,2.01,2.07c0,0.58-0.32,2.06-2.06,2.06h-1.55V43.81z
		 M152.21,40.36c1.01,0,1.01-0.72,1.01-1.01c0-0.63-0.35-0.89-1.19-0.89h-1.07v1.9H152.21z"/>
	<path class="st3" d="M159.36,42.4c-0.33,1.15-1.29,1.53-2.11,1.53c-1.35,0-2.39-0.65-2.39-2.62c0-0.58,0.2-2.42,2.3-2.42
		c0.95,0,2.25,0.45,2.25,2.64v0.22h-3.29c0.04,0.36,0.11,1.17,1.13,1.17c0.35,0,0.71-0.18,0.81-0.52H159.36z M158.11,40.93
		c-0.07-0.77-0.57-1.01-0.97-1.01c-0.59,0-0.91,0.38-0.98,1.01H158.11z"/>
	<path class="st3" d="M160.24,39.02h1.21v0.83h0.02c0.26-0.49,0.55-0.95,1.31-0.95c0.08,0,0.16,0.01,0.24,0.02v1.28
		c-0.11-0.02-0.24-0.02-0.36-0.02c-0.98,0-1.16,0.61-1.16,1.14v2.49h-1.26V39.02z"/>
	<path class="st3" d="M167.93,43.81h-1.21v-0.67h-0.02c-0.29,0.51-0.79,0.8-1.46,0.8c-0.95,0-1.63-0.54-1.63-1.76v-3.15h1.26v2.97
		c0,0.74,0.43,0.88,0.82,0.88c0.41,0,0.97-0.23,0.97-1.09v-2.76h1.26V43.81z M166.16,38.37h-0.91l0.85-1.31h1.39L166.16,38.37z"/>
</g>
</svg>
